<?xml version="1.0" encoding="utf-8"?>
<!-- Generator: Adobe Illustrator 26.0.0, SVG Export Plug-In . SVG Version: 6.00 Build 0)  -->
<svg version="1.1" id="图层_1" xmlns="http://www.w3.org/2000/svg" xmlns:xlink="http://www.w3.org/1999/xlink" x="0px" y="0px"
	 viewBox="0 0 720 480" style="enable-background:new 0 0 720 480;" xml:space="preserve">
<style type="text/css">
	.st0{fill:none;stroke:#000000;stroke-miterlimit:10;}
	.st1{fill:none;}
</style>
<g>
	<line class="st0" x1="41.8" y1="464.8" x2="641.1" y2="464.8"/>
</g>
<line class="st0" x1="641.1" y1="15.3" x2="641.1" y2="464.8"/>
<line class="st0" x1="641.1" y1="15.3" x2="41.8" y2="464.8"/>
<line class="st0" x1="479.3" y1="138.1" x2="479.3" y2="464.8"/>
<g>
	<path d="M321,445.6c3.3,0,3.6-0.9,3.6-3.6v-14.4c0-2.7-0.3-3.3-3.3-3.6v-0.6h8.4c3.6,0,7.5,1.2,7.5,5.7c0,3-1.5,4.8-4.5,6
		c0.6,1.2,2.1,3.3,3.3,4.8c1.8,2.1,4.2,5.1,6,5.7v0.6c-3.3,0-5.1-0.3-10.5-9c-0.9-1.2-2.1-1.2-5.1-1.2v6c0,2.7,0.3,3.6,3.3,3.6v0.6
		H321V445.6z M328.8,435.4c2.1,0,3.3-0.3,4.5-1.2c1.2-0.9,1.8-2.4,1.8-4.5c0-3.9-2.4-5.4-6.3-5.4c-0.9,0-1.5,0-1.8,0s-0.3,0-0.3,0.9
		v10.2H328.8z"/>
</g>
<g>
	<path d="M438.5,308.6h8.1v0.6c-1.8,0.3-2.4,0.3-2.4,0.9c0,0.3,0.3,0.6,0.6,1.2c1.2,2.1,3,4.2,4.8,6.6c2.1-3,4.5-6.3,4.5-7.5
		c0-0.6-0.6-0.9-2.4-1.2v-0.6h8.1v0.6c-2.7,0.3-3.3,0.9-5.1,3c-0.6,0.6-1.8,2.1-4.8,6.3c2.1,3,4.5,6.3,6,8.4
		c1.5,2.4,2.7,3.3,5.1,3.6v0.6h-8.4v-0.6c1.5-0.3,2.1-0.3,2.1-1.2c0-0.3,0-0.6-0.3-0.9c-0.9-1.5-3.6-5.4-5.7-8.1
		c-2.1,3.3-3.6,6-5.1,8.1c-0.3,0.3-0.3,0.9-0.3,0.9c0,0.6,0.6,0.9,2.4,1.2v0.6h-8.1v-0.6c2.1-0.3,3-0.9,4.2-2.1
		c0.3-0.3,1.8-2.4,6.3-8.7c-2.1-3-3.9-6-4.8-6.9c-1.8-2.7-2.1-3.3-4.8-3.6L438.5,308.6L438.5,308.6z"/>
</g>
<g>
	<path d="M527.2,441.4c0,4.5-0.6,7.5-2.7,9.6c-1.5,1.5-4.2,2.4-6.6,2.4c-2.1,0-4.2-0.6-6-1.8c-1.8-1.5-2.7-3.6-2.7-7.8v-9
		c0-3-0.3-3.6-3.6-3.6v-0.6h8.7v0.6c-3,0-3.3,0.9-3.3,3.6v8.1c0,6.3,3,9.3,7.8,9.3c5.4,0,7.5-4.2,7.5-10.5v-1.8c0-3.9,0-5.4-0.3-6.6
		c-0.3-1.2-1.5-1.8-3.9-2.1v-0.6h9v0.6c-2.1,0.3-3.3,0.9-3.3,2.1c-0.3,1.2-0.3,2.7-0.3,6.6v1.5H527.2z"/>
	<path d="M532.6,452.8c2.1,0,2.4-0.6,2.4-2.4v-9.6c0-1.8-0.3-2.1-2.1-2.4v-0.3h5.7c2.4,0,5.1,0.6,5.1,3.9c0,2.1-1.2,3.3-3,4.2
		c0.3,0.6,1.5,2.4,2.1,3.3c1.2,1.5,2.7,3.6,4.2,3.9v0.3c-2.1,0-3.3,0-6.9-6c-0.6-0.9-1.2-0.9-3.3-0.9v3.9c0,1.8,0.3,2.4,2.4,2.4v0.3
		h-6v-0.6H532.6z M537.7,445.9c1.5,0,2.4-0.3,3-0.6c0.9-0.6,1.2-1.5,1.2-3c0-2.7-1.8-3.6-4.2-3.6c-0.6,0-1.2,0-1.2,0s-0.3,0-0.3,0.6
		v6.9h1.5V445.9z"/>
</g>
<g>
	<path d="M539.2,330.8c4.5,0,7.5,0.6,9.6,2.7c1.5,1.5,2.4,4.2,2.4,6.6c0,2.1-0.6,4.2-1.8,6c-1.5,1.8-3.6,2.7-7.8,2.7h-9
		c-3,0-3.6,0.3-3.6,3.6h-0.3v-8.7h0.6c0,3,0.9,3.3,3.6,3.3h8.1c6.3,0,9.3-3,9.3-7.8c0-5.4-4.2-7.5-10.5-7.5h-2.1
		c-3.9,0-5.4,0-6.6,0.3c-1.2,0.3-1.8,1.5-2.1,3.9h-0.3v-9h0.6c0.3,2.1,0.9,3.3,2.1,3.3c1.2,0.3,2.7,0.3,6.6,0.3h1.2V330.8z"/>
	<path d="M547.3,314c0.9,0.3,2.7,0.6,3.6,0.9v10.5h-0.3c0-2.1-0.6-2.1-2.4-2.1h-9.3c-1.8,0-2.4,0.3-2.4,2.4h-0.3v-6h0.3
		c0,2.1,0.6,2.4,2.4,2.4h9c2.4,0,2.7-0.6,2.7-3c0-1.5-0.3-2.7-0.9-3c-0.3-0.3-1.2-0.9-2.4-1.2L547.3,314L547.3,314z"/>
	<path d="M541,311.6v-8.1h-8.1v-1.8h8.1v-8.1h1.5v8.1h8.7v1.8h-8.7v8.1H541z"/>
	<path d="M539.2,269.4c4.5,0,7.5,0.6,9.6,2.7c1.5,1.5,2.4,4.2,2.4,6.6c0,2.1-0.6,4.2-1.8,6c-1.5,1.8-3.6,2.7-7.8,2.7h-9
		c-3,0-3.6,0.3-3.6,3.6h-0.3v-8.7h0.6c0,3,0.9,3.3,3.6,3.3h8.1c6.3,0,9.3-3,9.3-7.8c0-5.4-4.2-7.5-10.5-7.5h-2.1
		c-3.9,0-5.4,0-6.6,0.3c-1.2,0.3-1.8,1.5-2.1,3.9h-0.3v-9h0.6c0.3,2.1,0.9,3.3,2.1,3.3c1.2,0.3,2.7,0.3,6.6,0.3h1.2V269.4z"/>
	<path d="M546.7,248.7c1.2,0.3,3.3,0.9,4.2,1.2c0,0.9,0.6,3,0.6,4.8c0,6.3-3.9,9-7.8,9c-4.8,0-8.1-3.9-8.1-9.6
		c0-2.4,0.6-3.9,0.6-4.5c1.2-0.3,2.4-0.3,3.6-0.6v0.3c-2.7,0.6-3.9,2.4-3.9,5.4c0,4.8,3,6.9,6.9,6.9c4.8,0,7.8-2.7,7.8-6.9
		c0-3.3-1.8-4.8-4.2-6L546.7,248.7z"/>
</g>
<g>
	<path d="M89.7,443.2v0.3c-2.4,1.5-3.6,3.6-3.9,5.7c-0.3,2.7,0.6,4.2,3.3,4.5l1.2-7.2c0.3-1.2,0.9-2.1,1.8-2.7
		c1.2-0.6,2.1-0.6,3-0.3c0.6,0.3,1.2,0.9,1.8,1.8c0.3,1.5,0.3,2.7,0,4.2c-0.9,2.7-3.3,4.2-6.9,4.5l-0.3,3l-1.5,0.3l0.6-3.3
		c-3.6,0-5.4-2.1-4.8-6C85.2,445.3,87,443.5,89.7,443.2z M93.9,444.7c-0.6-0.3-0.9-0.3-1.2,0c-0.9,0.6-1.5,1.5-1.5,2.7l-1.2,6.3
		c2.7-0.6,4.5-2.1,4.8-4.2c0.3-1.2,0.3-2.4,0.3-3.3C94.8,445.3,94.5,444.7,93.9,444.7z"/>
</g>
<line class="st1" x1="564.7" y1="73.7" x2="564.7" y2="466.3"/>
<line class="st0" x1="564.7" y1="73.7" x2="564.7" y2="466.3"/>
<g>
	<path d="M602.1,445.3v6.3c0,0.3,0,0.3,0.3,0.6c0.3,0,0.3,0.3,0.6,0.3h0.6v0.6h-4.5v-0.6h0.6c0.3,0,0.6,0,0.6-0.3
		c0,0,0.3-0.3,0.3-0.6v-13.5c0-0.3,0-0.3-0.3-0.6c0,0-0.3-0.3-0.6-0.3h-0.6v-0.6h5.7c1.5,0,2.7,0.3,3.6,1.2c0.9,0.9,1.2,1.8,1.2,3
		c0,1.5-0.6,2.4-1.5,3.3c-0.9,0.9-2.1,1.2-3.3,1.2L602.1,445.3L602.1,445.3z M604.5,444.7c0.9,0,1.8-0.3,2.4-0.9
		c0.6-0.6,1.2-1.5,1.2-3c0-1.2-0.3-2.1-0.9-2.7c-0.6-0.6-1.5-0.9-2.7-0.9h-1.2c-0.3,0-0.3,0-0.6,0.3c-0.3,0-0.3,0.3-0.3,0.6v6.6
		L604.5,444.7L604.5,444.7z"/>
</g>
<g>
	<path d="M672.9,268.5c-1.5,0-2.7-0.6-3.6-1.8c-1.2-1.2-1.5-3.3-1.5-6.3c0-2.4,0.6-4.5,1.5-6s2.1-2.1,3.9-2.1c1.5,0,2.7,0.6,3.6,2.1
		c0.9,1.5,1.5,3.3,1.5,6c0,2.1-0.3,3.9-0.9,5.1c-0.6,1.2-1.2,2.1-1.8,2.4c0,0.3,0.3,0.9,0.6,0.9s0.3,0.3,0.6,0.3s0.6,0,0.6-0.3
		c0.3,0,0.3-0.3,0.3-0.6l0.3,0.3c-0.3,0.6-0.3,1.2-0.6,1.5s-0.6,0.6-1.2,0.6c-0.3,0-0.6,0-0.9-0.3c-0.3-0.3-0.6-0.9-1.2-1.8h-0.3
		C673.8,268.5,673.2,268.5,672.9,268.5z M672.3,263.7c0.6,0,1.2,0.3,1.8,0.9c0.3,0.6,0.9,1.2,1.2,2.4c0.6-0.3,0.9-0.9,1.2-2.1
		c0.3-1.2,0.3-2.7,0.3-4.5c0-2.4-0.3-4.5-0.9-5.7c-0.6-1.2-1.5-2.1-2.7-2.1c-1.2,0-2.1,0.6-2.7,1.8c-0.6,1.2-0.9,3.3-0.9,5.7
		c0,1.2,0,2.4,0.3,3.3c0,0.9,0.3,1.5,0.6,1.8c0.3-0.6,0.6-0.9,0.9-1.2C671.1,263.7,671.7,263.7,672.3,263.7z M673.8,267.9
		c-0.3-0.9-0.3-1.8-0.6-2.4s-0.6-0.9-1.2-0.9c-0.3,0-0.6,0-0.9,0.3c-0.3,0.3-0.6,0.6-0.6,1.2s0.3,0.9,0.6,1.2
		c0.3,0.3,0.9,0.6,1.5,0.6c0.3,0,0.6,0,0.6,0C673.5,267.9,673.8,267.9,673.8,267.9z"/>
</g>
<g>
	<path d="M584.8,29.9c-1.8-0.6-2.7-1.5-3.6-2.1c-0.6-0.6-0.9-1.5-0.9-2.7c0-0.9,0.3-1.8,1.2-2.7c0.9-0.9,1.8-1.2,3.3-1.2
		c0.6,0,1.2,0,1.8,0.3c0.6,0.3,0.9,0.3,1.2,0.3s0.3,0,0.6,0s0.3-0.3,0.3-0.6l0.3,3.9l-0.6,0.3c-0.6-1.2-1.2-2.4-1.8-2.7
		s-1.2-0.6-2.4-0.6c-1.2,0-2.1,0.3-2.4,0.9c-0.3,0.6-0.6,1.5-0.6,2.1c0,0.6,0.3,1.2,0.6,1.8c0.3,0.3,1.5,0.9,3.3,1.8
		c1.5,0.6,2.7,1.2,3.3,2.1c0.6,0.9,0.9,1.8,0.9,2.7c0,1.2-0.3,2.1-1.2,3c-0.9,0.9-1.8,1.2-3.3,1.2c-0.6,0-1.2,0-1.8-0.3
		s-0.9-0.3-1.2-0.3s-0.3,0-0.6,0.3c-0.3,0-0.3,0.3-0.6,0.6l-0.9-4.5l0.6-0.3c0.3,1.5,0.9,2.7,1.8,3.3c0.9,0.6,1.8,0.9,2.7,0.9
		c1.2,0,1.8-0.3,2.4-0.9c0.6-0.6,0.9-1.5,0.9-2.7c0-0.6-0.3-1.2-0.9-1.8C586.8,31.1,585.9,30.5,584.8,29.9z"/>
</g>
<g>
	<path d="M318.9,290.6c0.9,0,1.5-0.3,2.1-0.9s1.2-1.2,1.5-2.4h0.6l-0.9,3.6h-9l8.1-15.6H318c-0.9,0-1.5,0.3-2.1,0.6
		c-0.6,0.6-1.2,1.2-1.8,2.1l-0.6-0.3l1.2-3.3h8.4L315,290h3.9V290.6z"/>
</g>
<g>
	<path d="M497.8,96.5c0.9,0,1.8-0.3,2.4-0.9c0.6-0.6,0.9-1.5,0.9-2.4V82.4c0-0.3,0-0.3-0.3-0.6c0,0-0.3-0.3-0.6-0.3h-0.6v-0.6h3.3
		v0.6h-0.6c-0.3,0-0.3,0-0.6,0.3c0,0-0.3,0.3-0.3,0.6v10.8c0,1.2-0.3,2.1-1.2,3c-0.9,0.6-1.8,1.2-3,1.2c-1.2,0-2.1-0.3-3-0.9
		c-0.9-0.6-1.2-1.5-1.2-3V82.4c0-0.3,0-0.3-0.3-0.6c0,0-0.3-0.3-0.6-0.3h-0.6v-0.6h4.2v0.6h0c-0.3,0-0.6,0-0.6,0.3
		c-0.3,0-0.3,0.3-0.3,0.6v11.1c0,1.2,0.3,2.1,0.9,2.4C496,96.2,496.9,96.5,497.8,96.5z"/>
</g>
</svg>
